<svg xmlns="http://www.w3.org/2000/svg" viewBox="0 0 32 32">
  <rect width="32" height="32" fill="#000"/>
  <!-- R -->
  <rect x="2" y="4" width="2" height="10" fill="#fff"/>
  <rect x="4" y="4" width="3" height="2" fill="#fff"/>
  <rect x="4" y="8" width="3" height="2" fill="#fff"/>
  <rect x="6" y="6" width="1" height="2" fill="#fff"/>
  <rect x="6" y="10" width="1" height="4" fill="#fff"/>
  <!-- E -->
  <rect x="9" y="4" width="4" height="2" fill="#fff"/>
  <rect x="9" y="8" width="3" height="2" fill="#fff"/>
  <rect x="9" y="12" width="4" height="2" fill="#fff"/>
  <rect x="9" y="6" width="2" height="2" fill="#fff"/>
  <rect x="9" y="10" width="2" height="2" fill="#fff"/>
  <!-- colon -->
  <rect x="14" y="7" width="2" height="2" fill="#fff"/>
  <rect x="14" y="11" width="2" height="2" fill="#fff"/>
  <!-- D -->
  <rect x="17" y="4" width="2" height="10" fill="#fff"/>
  <rect x="19" y="5" width="2" height="1" fill="#fff"/>
  <rect x="19" y="12" width="2" height="1" fill="#fff"/>
  <rect x="21" y="6" width="1" height="6" fill="#fff"/>
  <!-- small brand identifier dot row -->
  <rect x="2" y="20" width="28" height="1" fill="rgba(255,255,255,0.15)"/>
  <!-- RE text small -->
  <rect x="4" y="23" width="1" height="5" fill="#fff" opacity="0.6"/>
  <rect x="6" y="23" width="1" height="5" fill="#fff" opacity="0.6"/>
</svg>
